<?xml version="1.0" standalone="no"?>
<!DOCTYPE svg PUBLIC "-//W3C//DTD SVG 20010904//EN"
 "http://www.w3.org/TR/2001/REC-SVG-20010904/DTD/svg10.dtd">
<svg version="1.0" xmlns="http://www.w3.org/2000/svg"
 width="240.000000pt" height="240.000000pt" viewBox="0 0 240.000000 240.000000"
 preserveAspectRatio="xMidYMid meet">
<metadata>
Created by potrace 1.14, written by Peter Selinger 2001-2017
</metadata>
<g transform="translate(0.000000,240.000000) scale(0.100000,-0.100000)"
fill="#000000" stroke="none">
<path d="M349 1393 c-71 -36 -111 -99 -117 -183 -8 -104 38 -182 133 -226 94
-44 200 -27 275 44 l45 43 -35 29 -35 29 -30 -28 c-41 -39 -67 -51 -110 -51
-56 0 -94 25 -117 77 -28 63 -18 125 27 170 29 29 39 33 85 33 48 0 56 -4 92
-40 31 -31 48 -40 74 -40 l34 0 0 80 0 80 -50 0 c-36 0 -50 -4 -50 -14 0 -11
-8 -10 -37 5 -54 27 -119 24 -184 -8z"/>
<path d="M820 1370 c0 -33 3 -40 20 -40 11 0 20 -3 19 -7 0 -5 -26 -66 -57
-138 -52 -118 -60 -130 -84 -133 -25 -3 -28 -7 -28 -43 l0 -39 115 0 115 0 0
40 c0 39 -1 40 -35 40 -39 0 -39 -1 -25 34 9 25 13 26 89 26 79 0 79 0 90 -30
10 -30 9 -30 -25 -30 -33 0 -34 -1 -34 -40 l0 -40 115 0 115 0 0 40 c0 36 -3
40 -24 40 -21 0 -30 15 -80 133 -31 72 -56 135 -56 140 0 4 9 7 20 7 17 0 20
7 20 40 l0 40 -135 0 -135 0 0 -40z m145 -97 c33 -80 33 -83 -20 -83 -41 0
-46 2 -40 18 4 9 14 36 22 60 8 23 17 42 19 42 2 0 11 -17 19 -37z"/>
<path d="M1240 1365 c0 -45 0 -45 35 -45 l35 0 0 -135 0 -135 -35 0 c-34 0
-35 -1 -35 -40 l0 -40 130 0 130 0 0 40 0 40 -40 0 c-39 0 -40 1 -40 35 l0 35
71 0 c115 0 177 44 186 133 6 57 -22 105 -77 134 -40 21 -56 23 -202 23 l-158
0 0 -45z m314 -61 c20 -19 21 -54 2 -79 -10 -13 -30 -20 -75 -23 l-61 -4 0 61
0 61 59 0 c41 0 65 -5 75 -16z"/>
<path d="M1690 1365 c0 -42 2 -45 28 -45 22 0 39 -15 95 -84 63 -79 67 -86 67
-135 l0 -51 -35 0 c-34 0 -35 -1 -35 -40 l0 -40 130 0 130 0 0 39 c0 39 -1 40
-37 43 l-38 3 0 47 c0 43 6 55 65 132 52 68 71 85 95 88 28 3 30 7 33 46 l3
42 -111 0 -111 0 3 -42 c2 -34 7 -43 26 -48 22 -5 22 -5 -12 -53 l-34 -48 -36
47 c-31 40 -34 49 -21 56 9 6 15 23 15 48 l0 40 -110 0 -110 0 0 -45z"/>
</g>
</svg>
